<?xml version="1.0" encoding="UTF-8"?>
<svg viewBox="0 0 136 313" version="1.1" xmlns="http://www.w3.org/2000/svg" xmlns:xlink="http://www.w3.org/1999/xlink">
    <!-- Generator: Sketch 55.2 (78181) - https://sketchapp.com -->
    <title>k1-icon</title>
    <desc>Created with Sketch.</desc>
    <g id="Page-1" stroke="none" stroke-width="1" fill="none" fill-rule="evenodd">
        <g id="Group-2" transform="translate(-271.000000, -23.000000)" stroke="#FFFFFF" stroke-width="10">
            <path d="M399.520389,28.0000816 C399.513599,28.0000272 399.506803,28 399.5,28 C399.514042,28 399.527792,27.9999456 399.542095,27.9997506 Z M399.565032,28.0008316 L399.454636,28.0028351 C367.582011,28.5812727 347.613756,28.8703757 339.5,28.8703757 C339.251262,28.8703167 339.251262,28.8703167 339.006779,28.8700224 C338.748738,28.8703167 338.748738,28.8703167 338.5,28.8703757 C330.386244,28.8703757 310.417989,28.5812727 278.545364,28.0028351 L278.434968,28.0008316 C277.085221,28.0353879 276,29.1425231 276,30.5024209 L276,31.3637491 C276,32.744461 277.119288,33.8637491 278.5,33.8637491 C283.61845,33.8637491 283.61845,33.8637491 295.023411,33.8637491 C301.929114,33.8637491 306.752033,38.8114443 309.511125,47.3028682 C311.867784,54.555756 313,65.00933 313,78.8006903 L313,280.063059 C313,293.854419 311.867784,304.307993 309.511125,311.560881 C306.752033,320.052305 301.929114,325 295.023411,325 C283.61845,325 283.61845,325 278.5,325 C277.119288,325 276,326.119288 276,327.5 L276,328.361328 C276,329.721226 277.085221,330.828361 278.434968,330.862917 L278.545364,330.860914 C310.417989,330.282476 330.386244,329.993373 338.5,329.993373 C338.748738,329.993432 338.748738,329.993432 338.993221,329.993727 C339.251262,329.993432 339.251262,329.993432 339.5,329.993373 C347.613756,329.993373 367.582011,330.282476 399.454636,330.860914 L399.565032,330.862917 C400.914779,330.828361 402,329.721226 402,328.361328 L402,327.5 C402,326.119288 400.880712,325 399.5,325 C394.38155,325 394.38155,325 382.976589,325 C376.070886,325 371.247967,320.052305 368.488875,311.560881 C366.132216,304.307993 365,293.854419 365,280.063059 L365,78.8006903 C365,65.00933 366.132216,54.555756 368.488875,47.3028682 C371.247967,38.8114443 376.070886,33.8637491 382.976589,33.8637491 C394.38155,33.8637491 394.38155,33.8637491 399.5,33.8637491 C400.880712,33.8637491 402,32.744461 402,31.3637491 L402,30.5024209 C402,29.1425231 400.914779,28.0353879 399.565032,28.0008316 Z" id="k1-icon"></path>
        </g>
    </g>
</svg>
