<?xml version="1.0" encoding="UTF-8"?>
<svg viewBox="0 0 285 313" version="1.1" xmlns="http://www.w3.org/2000/svg" xmlns:xlink="http://www.w3.org/1999/xlink">
    <!-- Generator: Sketch 55.2 (78181) - https://sketchapp.com -->
    <title>k2-icon</title>
    <desc>Created with Sketch.</desc>
    <g id="Page-1" stroke="none" stroke-width="1" fill="none" fill-rule="evenodd">
        <g id="Group" transform="translate(-271.000000, -23.000000)" stroke="#FFFFFF" stroke-width="10">
            <g id="k2-icon" transform="translate(271.000000, 23.000000)">
                <path d="M128.520389,5.00008163 C128.513599,5.00002724 128.506803,5 128.5,5 C128.514042,5 128.527792,4.99994559 128.542095,4.99975057 Z M128.565032,5.0008316 L128.454636,5.00283511 C96.5820108,5.58127273 76.6137561,5.87037569 68.5,5.87037569 C68.2512615,5.87031672 68.2512615,5.87031672 68.0067791,5.87002242 C67.7487385,5.87031672 67.7487385,5.87031672 67.5,5.87037569 C59.3862439,5.87037569 39.4179892,5.58127273 7.54536352,5.00283511 L7.43496757,5.0008316 C6.08522112,5.03538789 5,6.14252313 5,7.50242089 L5,8.36374909 C5,9.74446097 6.11928813,10.8637491 7.5,10.8637491 C12.6184503,10.8637491 12.6184503,10.8637491 24.0234113,10.8637491 C30.9291141,10.8637491 35.7520327,15.8114443 38.5111253,24.3028682 C40.867784,31.555756 42,42.00933 42,55.8006903 L42,257.063059 C42,270.854419 40.867784,281.307993 38.5111253,288.560881 C35.7520327,297.052305 30.9291141,302 24.0234113,302 C12.6184503,302 12.6184503,302 7.5,302 C6.11928813,302 5,303.119288 5,304.5 L5,305.361328 C5,306.721226 6.08522112,307.828361 7.43496757,307.862917 L7.54536352,307.860914 C39.4179892,307.282476 59.3862439,306.993373 67.5,306.993373 C67.7487385,306.993432 67.7487385,306.993432 67.9932209,306.993727 C68.2512615,306.993432 68.2512615,306.993432 68.5,306.993373 C76.6137561,306.993373 96.5820108,307.282476 128.454636,307.860914 L128.565032,307.862917 C129.914779,307.828361 131,306.721226 131,305.361328 L131,304.5 C131,303.119288 129.880712,302 128.5,302 C123.38155,302 123.38155,302 111.976589,302 C105.070886,302 100.247967,297.052305 97.4888747,288.560881 C95.132216,281.307993 94,270.854419 94,257.063059 L94,55.8006903 C94,42.00933 95.132216,31.555756 97.4888747,24.3028682 C100.247967,15.8114443 105.070886,10.8637491 111.976589,10.8637491 C123.38155,10.8637491 123.38155,10.8637491 128.5,10.8637491 C129.880712,10.8637491 131,9.74446097 131,8.36374909 L131,7.50242089 C131,6.14252313 129.914779,5.03538789 128.565032,5.0008316 Z" id="Combined-Shape-Copy-3"></path>
                <path d="M277.520389,5.00008163 C277.513599,5.00002724 277.506803,5 277.5,5 C277.514042,5 277.527792,4.99994559 277.542095,4.99975057 Z M277.565032,5.0008316 L277.454636,5.00283511 C245.582011,5.58127273 225.613756,5.87037569 217.5,5.87037569 C217.251262,5.87031672 217.251262,5.87031672 217.006779,5.87002242 C216.748738,5.87031672 216.748738,5.87031672 216.5,5.87037569 C208.386244,5.87037569 188.417989,5.58127273 156.545364,5.00283511 L156.434968,5.0008316 C155.085221,5.03538789 154,6.14252313 154,7.50242089 L154,8.36374909 C154,9.74446097 155.119288,10.8637491 156.5,10.8637491 C161.61845,10.8637491 161.61845,10.8637491 173.023411,10.8637491 C179.929114,10.8637491 184.752033,15.8114443 187.511125,24.3028682 C189.867784,31.555756 191,42.00933 191,55.8006903 L191,257.063059 C191,270.854419 189.867784,281.307993 187.511125,288.560881 C184.752033,297.052305 179.929114,302 173.023411,302 C161.61845,302 161.61845,302 156.5,302 C155.119288,302 154,303.119288 154,304.5 L154,305.361328 C154,306.721226 155.085221,307.828361 156.434968,307.862917 L156.545364,307.860914 C188.417989,307.282476 208.386244,306.993373 216.5,306.993373 C216.748738,306.993432 216.748738,306.993432 216.993221,306.993727 C217.251262,306.993432 217.251262,306.993432 217.5,306.993373 C225.613756,306.993373 245.582011,307.282476 277.454636,307.860914 L277.565032,307.862917 C278.914779,307.828361 280,306.721226 280,305.361328 L280,304.5 C280,303.119288 278.880712,302 277.5,302 C272.38155,302 272.38155,302 260.976589,302 C254.070886,302 249.247967,297.052305 246.488875,288.560881 C244.132216,281.307993 243,270.854419 243,257.063059 L243,55.8006903 C243,42.00933 244.132216,31.555756 246.488875,24.3028682 C249.247967,15.8114443 254.070886,10.8637491 260.976589,10.8637491 C272.38155,10.8637491 272.38155,10.8637491 277.5,10.8637491 C278.880712,10.8637491 280,9.74446097 280,8.36374909 L280,7.50242089 C280,6.14252313 278.914779,5.03538789 277.565032,5.0008316 Z" id="Combined-Shape-Copy-4"></path>
            </g>
        </g>
    </g>
</svg>
