<?xml version="1.0" encoding="UTF-8"?>
<svg width="409px" height="409px" viewBox="0 0 409 409" version="1.1" xmlns="http://www.w3.org/2000/svg" xmlns:xlink="http://www.w3.org/1999/xlink">
    <!-- Generator: Sketch 55.2 (78181) - https://sketchapp.com -->
    <title>revan-silhouette-2</title>
    <desc>Created with Sketch.</desc>
    <g id="Page-1" stroke="none" stroke-width="1" fill="none" fill-rule="evenodd">
        <g id="Group-2-Copy-4" transform="translate(71.000000, 12.000000)" fill="#000000">
            <path d="M193.519069,143 L72.1632947,143 L105.40068,242.079583 L122.85453,242.079583 L122.85453,382.079583 L123.85453,382.079583 L123.85453,383.322838 L103.703709,372.50818 L103.92756,371.249355 L65.8433438,209.451355 L28.8583945,183.967092 L14.9307123,143 L14.6055103,143 L10,126 L256.628673,126 L251.373651,143 L250.751292,143 L236.850666,183.887509 L199.865716,209.371772 L161.7815,371.169772 L162.01827,372.501247 L141.85453,383.322838 L141.85453,382 L142.85453,382 L142.85453,242 L160.30838,242 L193.519069,143 Z M100.393248,360.208812 L21.535038,250.555029 L12.8117935,191.225025 L65.196969,228.156198 L100.393248,360.208812 Z M0.478534574,105.920417 C16.4692956,42.0675827 68.1984773,0 128.85453,0 L135,0 C195.656053,0 249.239765,42.0675827 265.230526,105.920417 L0.478534574,105.920417 Z M252.910321,191.13624 L244.174022,250.555029 L165.28211,360.255675 L200.512091,228.076615 L252.910321,191.13624 Z" id="Combined-Shape"></path>
        </g>
    </g>
</svg>