<?xml version="1.0" encoding="UTF-8"?>
<svg width="266px" height="384px" viewBox="0 0 266 384" version="1.1" xmlns="http://www.w3.org/2000/svg" xmlns:xlink="http://www.w3.org/1999/xlink">
    <!-- Generator: Sketch 55.2 (78181) - https://sketchapp.com -->
    <title>Revan Copy 2</title>
    <desc>Created with Sketch.</desc>
    <g id="Page-1" stroke="none" stroke-width="1" fill="none" fill-rule="evenodd">
        <g id="Group-2-Copy-2" transform="translate(-94.000000, -35.000000)">
            <g id="Revan-Copy-2" transform="translate(227.000000, 227.000000) scale(-1, 1) translate(-227.000000, -227.000000) translate(94.000000, 35.000000)">
                <path d="M142,382 L124,382 L124,383.322838 L104.508443,373.019593 L104.07303,371.169772 L103.83626,372.501247 L100.57242,360.255675 L21.6805079,250.555029 L12.9442092,191.13624 L12.9355553,191.130139 L0.572734918,105.920417 L0.624004411,105.920417 C16.6147654,42.0675827 68.3439472,-1.42108547e-14 129,-1.42108547e-14 C130.164257,-1.42108547e-14 131.33103,0.0111142324 132.5,0.0332767095 C132.666712,0.030116027 132.833379,0.0271800525 133,0.0244689773 C133.166621,0.0271800525 133.333288,0.030116027 133.5,0.0332767095 C134.66897,0.0111142324 135.835743,-1.42108547e-14 137,-1.42108547e-14 C197.656053,-1.42108547e-14 249.385235,42.0675827 265.375996,105.920417 L265.427265,105.920417 L253.064445,191.130139 L253.055791,191.13624 L244.319492,250.555029 L165.42758,360.255675 L162.16374,372.501247 L161.92697,371.169772 L161.491557,373.019593 L142,383.322838 L142,382 Z" id="Path" fill-opacity="0.06" fill="#003D5D"></path>
                <polygon id="Path" fill-opacity="0.2" fill="#060505" points="133 382 133 382.079583 123 382.079583 123 242.079583 105.54615 242.079583 72 142.079583 14.7632656 142.079583 29.0038644 183.967092 65.9888137 209.451355 104.07303 371.249355 103.83626 372.580829 65.3424388 228.156198 12.9355553 191.209721 0.572734918 106 133 106 133 105.920417 265.427265 105.920417 253.064445 191.130139 200.657561 228.076615 162.16374 372.501247 161.92697 371.169772 200.011186 209.371772 236.996136 183.887509 251.236734 142 194 142 160.45385 242 143 242 143 382 133 382"></polygon>
                <path d="M135,126 L256.628673,126 L251.373651,143 L135,143 L14.6055103,143 L10,126 L135,126 Z" id="Combined-Shape" fill-opacity="0.2" fill="#000000"></path>
            </g>
        </g>
    </g>
</svg>