<?xml version="1.0" encoding="UTF-8"?>
<svg width="409px" height="409px" viewBox="0 0 409 409" version="1.1" xmlns="http://www.w3.org/2000/svg" xmlns:xlink="http://www.w3.org/1999/xlink">
    <!-- Generator: Sketch 55.2 (78181) - https://sketchapp.com -->
    <title>revan-silhouette</title>
    <desc>Created with Sketch.</desc>
    <g id="Page-1" stroke="none" stroke-width="1" fill="none" fill-rule="evenodd">
        <g id="Group-2-Copy-4" transform="translate(71.000000, 12.000000)">
            <path d="M127.85453,382.039791 L127.85453,379.5 L127.85453,382.039791 Z M127.85453,379.5 L127.85453,377 L137.85453,377 L137.85453,237 L156.71185,237 L190.258,137 L255.720201,137 L258.840333,115.494752 C258.867928,115.304551 258.88178,115.112609 258.88178,114.920417 C258.88178,112.711278 257.090919,110.920417 254.88178,110.920417 L137.85453,110.920417 L137.85453,111 L10.8272805,111 C10.6350886,111 10.4431466,111.013852 10.2529461,111.041447 C8.06669778,111.358643 6.55153162,113.388086 6.86872776,115.574334 L9.9888591,137.079583 L75.45106,137.079583 L108.99721,237.079583 L127.85453,237.079583 L127.85453,379.5 Z M253.969216,149.068522 L241.051458,187.065008 L204.290817,212.394712 L202.343468,220.667879 L248.27968,188.28318 L253.969216,149.068522 Z M166.884988,371.310632 L166.805101,371.650025 L165.10569,371.952224 L161.7815,371.169772 L166.704272,370.294377 L166.884988,371.310632 Z M11.7398443,149.148104 L17.4293804,188.362763 L63.3655921,220.747462 L61.4182437,212.474295 L24.6576025,187.144591 L11.7398443,149.148104 Z M100.60337,372.031807 L98.903959,371.729608 L98.8240721,371.390214 L99.0047882,370.37396 L103.92756,371.249355 L100.60337,372.031807 Z" id="Path" stroke="#FFFFFF" stroke-width="10" fill-opacity="0.2" fill="#060505"></path>
            <path d="M122.646627,377 L118.85453,377 L118.85453,383.322838 L123.85453,383.322838 L126.218962,378.917221 L122.646627,377 Z M107.964166,369.120133 L106.055222,368.09563 L108.522126,371.21354 L107.964166,369.120133 Z M26.3048353,248.623727 L25.5943331,247.635761 L26.4818548,249.827702 L26.3048353,248.623727 Z M17.4308076,188.284187 L15.6710747,187.043587 L12.7900854,191.130139 L17.7386986,190.415137 L17.4308076,188.284187 Z M5.5690962,106.187858 L5.42714776,105.205415 L5.32875424,107.135065 C5.40796119,106.818783 5.48807551,106.50305 5.56909376,106.187867 Z M260.13991,106.188261 C260.221003,106.503328 260.301136,106.81893 260.380306,107.135065 L260.281913,105.205415 L260.139907,106.18825 Z M248.278253,188.284187 L247.970362,190.415137 L252.918975,191.130139 L250.037986,187.043587 L248.278253,188.284187 Z M239.404225,248.623727 L239.227206,249.827702 L240.114727,247.635761 L239.404225,248.623727 Z M157.744895,369.120133 L157.186934,371.21354 L159.653839,368.09563 L157.744895,369.120133 Z M143.062434,377 L139.490098,378.917221 L141.85453,383.322838 L146.85453,383.322838 L146.85453,377 L143.062434,377 Z" id="Path" stroke="#FFFFFF" stroke-width="10"></path>
            <polygon id="Path" fill="#FFFFFF" points="10 126 256.628673 126 251.373651 143 14.6055103 143"></polygon>
        </g>
    </g>
</svg>